<?xml version="1.0" encoding="UTF-8" standalone="no"?>
<!-- Created with Inkscape (http://www.inkscape.org/) -->

<svg
   width="27.10293mm"
   height="31.29624mm"
   viewBox="0 0 27.10293 31.29624"
   version="1.1"
   id="svg5"
   inkscape:version="1.1.1 (3bf5ae0d25, 2021-09-20, custom)"
   sodipodi:docname="ualg-compbio-wo-fonts.svg"
   xmlns:inkscape="http://www.inkscape.org/namespaces/inkscape"
   xmlns:sodipodi="http://sodipodi.sourceforge.net/DTD/sodipodi-0.dtd"
   xmlns="http://www.w3.org/2000/svg"
   xmlns:svg="http://www.w3.org/2000/svg">
  <sodipodi:namedview
     id="namedview7"
     pagecolor="#ffffff"
     bordercolor="#666666"
     borderopacity="1.0"
     inkscape:pageshadow="2"
     inkscape:pageopacity="0.0"
     inkscape:pagecheckerboard="0"
     inkscape:document-units="mm"
     showgrid="false"
     fit-margin-top="0"
     fit-margin-left="0"
     fit-margin-right="0"
     fit-margin-bottom="0"
     inkscape:zoom="3.1108586"
     inkscape:cx="63.165841"
     inkscape:cy="28.448738"
     inkscape:window-width="2560"
     inkscape:window-height="1366"
     inkscape:window-x="1440"
     inkscape:window-y="222"
     inkscape:window-maximized="1"
     inkscape:current-layer="layer1" />
  <defs
     id="defs2">
    <marker
       style="overflow:visible;"
       id="Arrow1Lend"
       refX="0.0"
       refY="0.0"
       orient="auto"
       inkscape:stockid="Arrow1Lend"
       inkscape:isstock="true">
      <path
         transform="scale(0.8) rotate(180) translate(12.5,0)"
         style="fill-rule:evenodd;fill:context-stroke;stroke:context-stroke;stroke-width:1.0pt;"
         d="M 0.0,0.0 L 5.0,-5.0 L -12.5,0.0 L 5.0,5.0 L 0.0,0.0 z "
         id="path174382" />
    </marker>
    <inkscape:path-effect
       effect="bspline"
       id="path-effect174377"
       is_visible="true"
       lpeversion="1"
       weight="33.333333"
       steps="2"
       helper_size="0"
       apply_no_weight="true"
       apply_with_weight="true"
       only_selected="false" />
    <inkscape:path-effect
       effect="bspline"
       id="path-effect135608"
       is_visible="true"
       lpeversion="1"
       weight="33.333333"
       steps="2"
       helper_size="0"
       apply_no_weight="true"
       apply_with_weight="true"
       only_selected="false" />
    <inkscape:path-effect
       effect="bspline"
       id="path-effect135604"
       is_visible="true"
       lpeversion="1"
       weight="33.333333"
       steps="2"
       helper_size="0"
       apply_no_weight="true"
       apply_with_weight="true"
       only_selected="false" />
    <inkscape:path-effect
       effect="bspline"
       id="path-effect135600"
       is_visible="true"
       lpeversion="1"
       weight="33.333333"
       steps="2"
       helper_size="0"
       apply_no_weight="true"
       apply_with_weight="true"
       only_selected="false" />
    <inkscape:path-effect
       effect="bspline"
       id="path-effect135596"
       is_visible="true"
       lpeversion="1"
       weight="33.333333"
       steps="2"
       helper_size="0"
       apply_no_weight="true"
       apply_with_weight="true"
       only_selected="false" />
    <inkscape:path-effect
       effect="bspline"
       id="path-effect135592"
       is_visible="true"
       lpeversion="1"
       weight="33.333333"
       steps="2"
       helper_size="0"
       apply_no_weight="true"
       apply_with_weight="true"
       only_selected="false" />
    <inkscape:path-effect
       effect="bspline"
       id="path-effect135588"
       is_visible="true"
       lpeversion="1"
       weight="33.333333"
       steps="2"
       helper_size="0"
       apply_no_weight="true"
       apply_with_weight="true"
       only_selected="false" />
    <inkscape:path-effect
       effect="bspline"
       id="path-effect74261"
       is_visible="true"
       lpeversion="1"
       weight="33.333333"
       steps="2"
       helper_size="0"
       apply_no_weight="true"
       apply_with_weight="true"
       only_selected="false" />
    <inkscape:path-effect
       effect="bspline"
       id="path-effect74257"
       is_visible="true"
       lpeversion="1"
       weight="33.333333"
       steps="2"
       helper_size="0"
       apply_no_weight="true"
       apply_with_weight="true"
       only_selected="false" />
    <inkscape:path-effect
       effect="bspline"
       id="path-effect74253"
       is_visible="true"
       lpeversion="1"
       weight="33.333333"
       steps="2"
       helper_size="0"
       apply_no_weight="true"
       apply_with_weight="true"
       only_selected="false" />
    <inkscape:path-effect
       effect="bspline"
       id="path-effect74183"
       is_visible="true"
       lpeversion="1"
       weight="33.333333"
       steps="2"
       helper_size="0"
       apply_no_weight="true"
       apply_with_weight="true"
       only_selected="false" />
    <inkscape:path-effect
       effect="bspline"
       id="path-effect74179"
       is_visible="true"
       lpeversion="1"
       weight="33.333333"
       steps="2"
       helper_size="0"
       apply_no_weight="true"
       apply_with_weight="true"
       only_selected="false" />
    <inkscape:path-effect
       effect="bspline"
       id="path-effect74175"
       is_visible="true"
       lpeversion="1"
       weight="33.333333"
       steps="2"
       helper_size="0"
       apply_no_weight="true"
       apply_with_weight="true"
       only_selected="false" />
    <marker
       style="overflow:visible"
       id="Arrow2Mstart"
       refX="0"
       refY="0"
       orient="auto"
       inkscape:stockid="Arrow2Mstart"
       inkscape:isstock="true">
      <path
         transform="scale(0.6)"
         d="M 8.7185878,4.0337352 -2.2072895,0.01601326 8.7185884,-4.0017078 c -1.7454984,2.3720609 -1.7354408,5.6174519 -6e-7,8.035443 z"
         style="fill:context-stroke;fill-rule:evenodd;stroke:context-stroke;stroke-width:0.625;stroke-linejoin:round"
         id="path52837" />
    </marker>
    <marker
       style="overflow:visible"
       id="marker53590"
       refX="0"
       refY="0"
       orient="auto"
       inkscape:stockid="Arrow2Sstart"
       inkscape:isstock="true">
      <path
         transform="matrix(0.3,0,0,0.3,-0.69,0)"
         d="M 8.7185878,4.0337352 -2.2072895,0.01601326 8.7185884,-4.0017078 c -1.7454984,2.3720609 -1.7354408,5.6174519 -6e-7,8.035443 z"
         style="fill:context-stroke;fill-rule:evenodd;stroke:context-stroke;stroke-width:0.625;stroke-linejoin:round"
         id="path53588" />
    </marker>
    <marker
       style="overflow:visible"
       id="Arrow2Mend"
       refX="0"
       refY="0"
       orient="auto"
       inkscape:stockid="Arrow2Mend"
       inkscape:isstock="true">
      <path
         transform="scale(-0.6)"
         d="M 8.7185878,4.0337352 -2.2072895,0.01601326 8.7185884,-4.0017078 c -1.7454984,2.3720609 -1.7354408,5.6174519 -6e-7,8.035443 z"
         style="fill:context-stroke;fill-rule:evenodd;stroke:context-stroke;stroke-width:0.625;stroke-linejoin:round"
         id="path52840" />
    </marker>
    <marker
       style="overflow:visible"
       id="Arrow1Send"
       refX="0"
       refY="0"
       orient="auto"
       inkscape:stockid="Arrow1Send"
       inkscape:isstock="true">
      <path
         transform="matrix(-0.2,0,0,-0.2,-1.2,0)"
         style="fill:context-stroke;fill-rule:evenodd;stroke:context-stroke;stroke-width:1pt"
         d="M 0,0 5,-5 -12.5,0 5,5 Z"
         id="path52828" />
    </marker>
    <marker
       style="overflow:visible"
       id="Arrow2Sstart"
       refX="0"
       refY="0"
       orient="auto"
       inkscape:stockid="Arrow2Sstart"
       inkscape:isstock="true">
      <path
         transform="matrix(0.3,0,0,0.3,-0.69,0)"
         d="M 8.7185878,4.0337352 -2.2072895,0.01601326 8.7185884,-4.0017078 c -1.7454984,2.3720609 -1.7354408,5.6174519 -6e-7,8.035443 z"
         style="fill:context-stroke;fill-rule:evenodd;stroke:context-stroke;stroke-width:0.625;stroke-linejoin:round"
         id="path52843" />
    </marker>
    <clipPath
       clipPathUnits="userSpaceOnUse"
       id="clipPath76">
      <path
         d="M 0,0 H 1024 V 768 H 0 Z"
         id="path74" />
    </clipPath>
    <clipPath
       clipPathUnits="userSpaceOnUse"
       id="clipPath76-6">
      <path
         d="M 0,0 H 1024 V 768 H 0 Z"
         id="path74-7" />
    </clipPath>
    <clipPath
       clipPathUnits="userSpaceOnUse"
       id="clipPath76-3">
      <path
         d="M 0,0 H 1024 V 768 H 0 Z"
         id="path74-75" />
    </clipPath>
  </defs>
  <g
     inkscape:label="Layer 1"
     inkscape:groupmode="layer"
     id="layer1"
     transform="translate(-75.373081,-148.33923)">
    <path
       style="isolation:isolate;fill:#ffffff;fill-opacity:1;stroke:none;stroke-width:0.0368832"
       inkscape:connector-curvature="0"
       id="path2066-9-9-0-7-6-1-3-5-6-5-3-0-5-2-3-2-2-4"
       d="m 101.3953,155.53931 -10.246309,-5.91579 -2.22446,-1.28429 -2.22446,1.28429 -10.24704,5.91615 -1.07995,0.62371 v 15.64794 l 1.07995,0.6237 10.37465,5.98956 2.09685,1.21089 2.09685,-1.21089 10.373919,-5.98919 1.08071,-0.62407 v -15.64794 z"
       class="cls-31"
       sodipodi:nodetypes="ccccccccccccccc" />
    <path
       style="isolation:isolate;fill:#4e9a06;fill-opacity:1;stroke:#ffffff;stroke-width:0.0368832;stroke-opacity:1"
       inkscape:connector-curvature="0"
       id="path2066-9-9-0-7-6-1-3-8-36-2-5-7-8-6-7-5-7-6-7"
       d="m 101.3953,155.53931 -10.246309,-5.91579 -2.22446,-1.28429 -2.22446,1.28429 -10.24704,5.91615 -1.07995,0.62371 v 15.64794 l 1.07995,0.6237 10.37465,5.98956 2.09688,1.21089 2.0968,-1.21089 10.373939,-5.98919 1.08071,-0.62407 v -15.64794 z m 0,15.68519 -12.471139,7.20008 -12.47113,-7.20008 v -14.40201 l 12.47113,-7.19897 v 0 l 12.471139,7.19897 z"
       class="cls-31" />
    <path
       style="isolation:isolate;fill:#e6b35a;stroke-width:0.0368832"
       inkscape:connector-curvature="0"
       id="path1798-0-8-6-3-9-9-3-3-9-8-6-4-6-8-0-6-0-1-6"
       d="m 88.906091,171.68296 c 0.0106,-0.0107 0.0225,-0.0218 0.0347,-0.0328 h -0.01 c -0.007,0.0111 -0.0156,0.0221 -0.0251,0.0328 z"
       class="cls-10" />
    <g
       aria-label="ualg.compbio"
       id="text903-6-6-6-3-2-3-8-6-0-9-2-5-8-5-2-3"
       style="font-size:2.82222px;line-height:125%;font-family:'Ubuntu Mono Ligaturized';-inkscape-font-specification:'Ubuntu Mono Ligaturized';letter-spacing:0px;word-spacing:0px;fill:#4e9a06;stroke-width:0.0368832px">
      <path
         d="m 81.629106,171.3312 q -0.0762,0.0198 -0.2032,0.0423 -0.124178,0.0226 -0.293511,0.0226 -0.149578,0 -0.248356,-0.0423 -0.09878,-0.0452 -0.160866,-0.12418 -0.06209,-0.0818 -0.08749,-0.19191 -0.0254,-0.11007 -0.0254,-0.24271 v -0.7366 h 0.231422 v 0.6858 q 0,0.24271 0.07056,0.34431 0.07338,0.1016 0.242711,0.1016 0.03669,0 0.07338,-0.003 0.03951,-0.003 0.07338,-0.006 0.03387,-0.006 0.05927,-0.008 0.0254,-0.006 0.03387,-0.008 v -1.10631 h 0.234245 z"
         id="path104841" />
      <path
         d="m 82.549149,171.20138 q 0.08749,0 0.155222,-0.006 0.07056,-0.006 0.115711,-0.0141 v -0.38946 q -0.04515,-0.0141 -0.110066,-0.0226 -0.06209,-0.008 -0.132645,-0.008 -0.06491,0 -0.126999,0.0113 -0.06209,0.008 -0.110067,0.0339 -0.04798,0.0254 -0.07902,0.0677 -0.03105,0.0395 -0.03105,0.1016 0,0.127 0.08467,0.1778 0.08749,0.048 0.234244,0.048 z m -0.02258,-1.17405 q 0.146755,0 0.245533,0.0367 0.1016,0.0367 0.163688,0.1016 0.06209,0.0649 0.08749,0.15805 0.0254,0.0931 0.0254,0.2032 v 0.81844 q -0.08184,0.0141 -0.217311,0.0339 -0.132644,0.0198 -0.273755,0.0198 -0.107244,0 -0.208844,-0.0198 -0.1016,-0.0169 -0.180622,-0.0621 -0.07902,-0.048 -0.127,-0.12982 -0.04798,-0.0819 -0.04798,-0.20885 0,-0.11289 0.04798,-0.18909 0.0508,-0.079 0.127,-0.127 0.07902,-0.048 0.177799,-0.0677 0.1016,-0.0226 0.2032,-0.0226 0.138289,0 0.270933,0.031 v -0.0649 q 0,-0.0593 -0.01411,-0.11289 -0.01129,-0.0565 -0.04798,-0.1016 -0.03387,-0.0452 -0.09596,-0.0706 -0.05927,-0.0282 -0.155222,-0.0282 -0.121355,0 -0.211667,0.0169 -0.09031,0.0169 -0.138288,0.0339 l -0.02822,-0.19191 q 0.04798,-0.0226 0.158045,-0.0395 0.112889,-0.0169 0.239889,-0.0169 z"
         id="path104843" />
      <path
         d="m 84.194504,171.39893 q -0.124178,0 -0.206022,-0.0339 -0.08185,-0.0339 -0.129823,-0.1016 -0.04798,-0.0677 -0.06773,-0.16651 -0.01976,-0.1016 -0.01976,-0.23425 v -1.23895 h -0.378178 v -0.19756 h 0.6096 v 1.43651 q 0,0.0988 0.01129,0.16087 0.01411,0.0621 0.03951,0.1016 0.02822,0.0367 0.06773,0.0508 0.03951,0.0141 0.09313,0.0141 0.08185,0 0.1524,-0.0198 0.07056,-0.0198 0.110067,-0.0423 l 0.03387,0.19756 q -0.01693,0.008 -0.04798,0.0226 -0.03104,0.0113 -0.07338,0.0226 -0.04233,0.0113 -0.09313,0.0198 -0.04798,0.008 -0.1016,0.008 z"
         id="path104845" />
      <path
         d="m 85.628192,171.24653 q -0.03951,0.0226 -0.121356,0.048 -0.08184,0.0254 -0.189089,0.0254 -0.115711,0 -0.217311,-0.0367 -0.09878,-0.0395 -0.174977,-0.11571 -0.07338,-0.079 -0.118534,-0.19755 -0.04233,-0.12136 -0.04233,-0.28505 0,-0.14393 0.03951,-0.26246 0.04233,-0.12136 0.118533,-0.20885 0.07902,-0.0875 0.191911,-0.13547 0.112889,-0.0508 0.256822,-0.0508 0.169334,0 0.287867,0.0254 0.121355,0.0226 0.2032,0.0452 v 1.1684 q 0,0.3048 -0.155222,0.44027 -0.1524,0.13546 -0.462844,0.13546 -0.127,0 -0.231422,-0.0197 -0.1016,-0.0198 -0.180623,-0.048 l 0.04233,-0.20602 q 0.07338,0.031 0.166511,0.0508 0.09596,0.0198 0.208844,0.0198 0.2032,0 0.290689,-0.0818 0.08749,-0.0819 0.08749,-0.26529 z m 0,-0.98213 q -0.03387,-0.0113 -0.09313,-0.0197 -0.05927,-0.0113 -0.160866,-0.0113 -0.180622,0 -0.276578,0.12417 -0.09313,0.12418 -0.09313,0.3302 0,0.11289 0.0254,0.19474 0.02822,0.079 0.07338,0.13264 0.04798,0.0508 0.107244,0.0762 0.05927,0.0226 0.127,0.0226 0.08749,0 0.163689,-0.0254 0.07902,-0.0254 0.127,-0.0593 z"
         id="path104847" />
      <path
         d="m 86.977213,171.18727 q 0,0.0847 -0.05645,0.14957 -0.05644,0.0649 -0.149577,0.0649 -0.09596,0 -0.1524,-0.0649 -0.05644,-0.0649 -0.05644,-0.14957 0,-0.0875 0.05644,-0.1524 0.05644,-0.0649 0.1524,-0.0649 0.09313,0 0.149577,0.0649 0.05645,0.0649 0.05645,0.1524 z"
         id="path104849" />
      <path
         d="m 87.612212,170.71596 q 0,-0.1778 0.05644,-0.30763 0.05644,-0.12982 0.155222,-0.21448 0.09878,-0.0847 0.2286,-0.12418 0.132645,-0.0423 0.282222,-0.0423 0.09596,0 0.189089,0.0141 0.09596,0.0113 0.2032,0.0452 l -0.05362,0.20038 q -0.09313,-0.0339 -0.172156,-0.0423 -0.0762,-0.0113 -0.155222,-0.0113 -0.1016,0 -0.191911,0.0282 -0.09031,0.0254 -0.158044,0.0847 -0.06491,0.0564 -0.104422,0.14957 -0.03951,0.0903 -0.03951,0.22014 0,0.12417 0.03669,0.21449 0.03669,0.0875 0.101599,0.14675 0.06773,0.0564 0.160867,0.0847 0.09313,0.0282 0.206022,0.0282 0.09031,0 0.172156,-0.008 0.08467,-0.0113 0.183444,-0.0452 l 0.03387,0.19473 q -0.09878,0.0367 -0.200377,0.0508 -0.1016,0.0169 -0.220133,0.0169 -0.158045,0 -0.290689,-0.0423 -0.129822,-0.0451 -0.225778,-0.12982 -0.09313,-0.0847 -0.146755,-0.21167 -0.0508,-0.12982 -0.0508,-0.29915 z"
         id="path104851" />
      <path
         d="m 90.183255,170.71313 q 0,0.15523 -0.04516,0.28223 -0.04233,0.12417 -0.121355,0.21449 -0.07902,0.0903 -0.189089,0.14111 -0.110066,0.048 -0.239889,0.048 -0.126999,0 -0.237066,-0.048 -0.107244,-0.0508 -0.186267,-0.14111 -0.07902,-0.0903 -0.124177,-0.21449 -0.04233,-0.127 -0.04233,-0.28223 0,-0.15522 0.04233,-0.28222 0.04515,-0.127 0.124177,-0.21449 0.07902,-0.0903 0.186267,-0.13829 0.110067,-0.0508 0.237066,-0.0508 0.129823,0 0.239889,0.0508 0.110067,0.048 0.189089,0.13829 0.07902,0.0875 0.121355,0.21449 0.04516,0.127 0.04516,0.28222 z m -0.239889,0 q 0,-0.22295 -0.09596,-0.34995 -0.09596,-0.12982 -0.259645,-0.12982 -0.160866,0 -0.256822,0.12982 -0.09313,0.127 -0.09313,0.34995 0,0.22014 0.09313,0.34996 0.09596,0.127 0.256822,0.127 0.163689,0 0.259645,-0.127 0.09596,-0.12982 0.09596,-0.34996 z"
         id="path104853" />
      <path
         d="m 90.411855,170.09507 q 0.169333,-0.0649 0.31891,-0.0649 0.08185,0 0.1524,0.0254 0.07338,0.0226 0.124178,0.0734 0.121355,-0.0988 0.259644,-0.0988 0.06773,0 0.127,0.0254 0.06209,0.0254 0.107245,0.0762 0.04798,0.0508 0.0762,0.127 0.02822,0.0762 0.02822,0.1778 v 0.93133 h -0.211667 v -0.93698 q 0,-0.1016 -0.04515,-0.15522 -0.04516,-0.0536 -0.112889,-0.0536 -0.03387,0 -0.07056,0.0169 -0.03669,0.0169 -0.06773,0.0536 0.01693,0.0649 0.01693,0.14394 v 0.42615 h -0.211666 v -0.42898 q 0,-0.0988 -0.03105,-0.15522 -0.03104,-0.0564 -0.121355,-0.0564 -0.05644,0 -0.127,0.0254 v 1.12042 h -0.211666 z"
         id="path104855" />
      <path
         d="m 92.765586,170.71596 q 0,-0.2286 -0.107244,-0.35278 -0.107245,-0.127 -0.2794,-0.127 -0.09596,0 -0.1524,0.008 -0.05362,0.008 -0.08467,0.0197 v 0.82691 q 0.03951,0.0367 0.115711,0.0677 0.0762,0.031 0.158045,0.031 0.09313,0 0.158044,-0.0367 0.06773,-0.0367 0.110067,-0.0988 0.04233,-0.0649 0.06209,-0.14957 0.01976,-0.0875 0.01976,-0.18909 z m 0.239889,0 q 0,0.14957 -0.03951,0.27657 -0.03669,0.12418 -0.110067,0.21449 -0.07055,0.0903 -0.174978,0.14111 -0.104422,0.0508 -0.237066,0.0508 -0.104422,0 -0.183444,-0.0254 -0.07902,-0.0254 -0.118534,-0.0564 v 0.51647 h -0.234244 v -1.73567 q 0.0762,-0.0226 0.194733,-0.0452 0.121356,-0.0226 0.276578,-0.0226 0.141111,0 0.256822,0.048 0.115711,0.048 0.197555,0.13829 0.08185,0.0875 0.127,0.21449 0.04516,0.127 0.04516,0.28505 z"
         id="path104857" />
      <path
         d="m 93.552985,170.10636 q 0.04233,-0.0254 0.121356,-0.0508 0.08184,-0.0282 0.180622,-0.0282 0.132644,0 0.237066,0.0508 0.104422,0.0508 0.174978,0.14112 0.07338,0.0903 0.110067,0.21731 0.03951,0.12417 0.03951,0.27657 0,0.15805 -0.04516,0.28505 -0.04516,0.127 -0.127,0.21731 -0.08184,0.0875 -0.197555,0.13547 -0.115711,0.048 -0.256822,0.048 -0.155222,0 -0.276578,-0.0226 -0.121355,-0.0226 -0.194733,-0.0452 v -1.8796 l 0.234244,-0.0395 z m 0,1.05833 q 0.05362,0.0141 0.107245,0.0226 0.05362,0.006 0.1016,0.006 0.194733,0 0.304799,-0.11853 0.110067,-0.12136 0.110067,-0.36125 0,-0.1016 -0.01976,-0.18908 -0.01976,-0.0903 -0.06209,-0.1524 -0.04233,-0.0649 -0.110067,-0.1016 -0.06491,-0.0367 -0.158044,-0.0367 -0.08185,0 -0.158045,0.0339 -0.0762,0.031 -0.115711,0.0677 z"
         id="path104859" />
      <path
         d="m 95.119317,169.85518 q -0.07338,0 -0.127,-0.0508 -0.05362,-0.0508 -0.05362,-0.13829 0,-0.0875 0.05362,-0.13829 0.05362,-0.0508 0.127,-0.0508 0.0762,0 0.127,0.0508 0.05362,0.0508 0.05362,0.13829 0,0.0875 -0.05362,0.13829 -0.0508,0.0508 -0.127,0.0508 z m -0.05927,0.39793 h -0.378178 v -0.19473 h 0.6096 v 0.80433 q 0,0.19474 0.05362,0.26247 0.05362,0.0649 0.160866,0.0649 0.08185,0 0.149578,-0.0198 0.07056,-0.0198 0.110067,-0.0423 l 0.03387,0.19756 q -0.01693,0.008 -0.04798,0.0226 -0.03105,0.0113 -0.07338,0.0226 -0.03951,0.0113 -0.09031,0.0198 -0.04798,0.008 -0.1016,0.008 -0.124178,0 -0.206022,-0.0339 -0.08185,-0.0339 -0.132644,-0.1016 -0.04798,-0.0677 -0.06773,-0.16651 -0.01976,-0.1016 -0.01976,-0.23425 z"
         id="path104861" />
      <path
         d="m 97.238804,170.71313 q 0,0.15523 -0.04516,0.28223 -0.04233,0.12417 -0.121356,0.21449 -0.07902,0.0903 -0.189088,0.14111 -0.110067,0.048 -0.239889,0.048 -0.127,0 -0.237066,-0.048 -0.107245,-0.0508 -0.186267,-0.14111 -0.07902,-0.0903 -0.124178,-0.21449 -0.04233,-0.127 -0.04233,-0.28223 0,-0.15522 0.04233,-0.28222 0.04516,-0.127 0.124178,-0.21449 0.07902,-0.0903 0.186267,-0.13829 0.110066,-0.0508 0.237066,-0.0508 0.129822,0 0.239889,0.0508 0.110066,0.048 0.189088,0.13829 0.07902,0.0875 0.121356,0.21449 0.04516,0.127 0.04516,0.28222 z m -0.239888,0 q 0,-0.22295 -0.09596,-0.34995 -0.09595,-0.12982 -0.259644,-0.12982 -0.160867,0 -0.256822,0.12982 -0.09313,0.127 -0.09313,0.34995 0,0.22014 0.09313,0.34996 0.09596,0.127 0.256822,0.127 0.163689,0 0.259644,-0.127 0.09596,-0.12982 0.09596,-0.34996 z"
         id="path104863" />
    </g>
    <g
       id="g62609"
       transform="matrix(0.14722264,0,0,0.14722264,70.615529,133.4657)">
      <path
         id="path5325-6-6-9"
         style="fill:#4e9a06;fill-opacity:1;stroke:none;stroke-width:0.0649999"
         d="m 124.36277,161.18249 17.29051,-10.67928 c 0,0 -7.91948,-3.04438 -17.29051,-2.92658 m 0,13.60586 -17.29051,-10.67928 c 0,0 7.91948,-3.04438 17.29051,-2.92658" />
      <path
         id="path1478-6-0-7"
         style="fill:#8ae234;fill-opacity:1;stroke:none;stroke-width:0.0649999"
         d="m 124.36277,161.18249 c 0,0 1.66456,-3.69033 6.95142,-7.22665 5.18076,-4.00544 11.82257,-2.41121 16.08386,-5.59229 3.18664,-1.54946 4.77712,-7.19805 6.67989,-6.90685 0.6419,0.26244 0.76663,0.97953 0.76663,0.97953 0.62156,1.83382 0.0343,10.08952 0.0343,10.08952 0,0 13.69234,5.71567 13.69234,22.13593 0,16.42026 -15.27835,22.07728 -21.39974,23.53249 l 6.17799,23.40704 c -8.62232,9.12403 -22.47241,12.47026 -28.98671,11.75221 m 2e-5,-72.17093 c 0,0 -1.66455,-3.69033 -6.95141,-7.22665 -5.18076,-4.00544 -11.82256,-2.41121 -16.08387,-5.59229 -3.18663,-1.54946 -4.77712,-7.19805 -6.67989,-6.90685 -0.64189,0.26244 -0.76662,0.97953 -0.76662,0.97953 -0.62156,1.83382 -0.0343,10.08952 -0.0343,10.08952 0,0 -13.69234,5.71567 -13.69234,22.13593 0,16.42026 15.27835,22.07728 21.39974,23.53249 l -6.17799,23.40704 c 8.62232,9.12403 22.4724,12.47026 28.98671,11.75221" />
      <path
         id="path4313-5-6-3"
         style="fill:#f57900;fill-opacity:1;stroke:none;stroke-width:0.0649999"
         d="m 124.36276,174.48946 -7.4073,15.48122 7.4073,7.36079 z m 0,0 v 22.84201 l 7.4073,-7.36079 z" />
      <ellipse
         style="fill:#ffffff;stroke:none;stroke-width:0.0629231"
         id="path1069-6-6"
         cx="104.46997"
         cy="174.19507"
         rx="20.318384"
         ry="20.499874" />
      <path
         id="path4553-1-1"
         style="fill:#2e3436;fill-opacity:1;stroke:none;stroke-width:0.0618003"
         d="m 104.57082,163.56609 a 10.842081,10.842081 0 0 0 -10.84172,10.84224 10.842081,10.842081 0 0 0 10.84172,10.84223 10.842081,10.842081 0 0 0 10.84223,-10.84223 10.842081,10.842081 0 0 0 -0.51728,-3.30781 5.1068133,5.1068133 0 0 1 -4.58939,2.86856 5.1068133,5.1068133 0 0 1 -5.10666,-5.10667 5.1068133,5.1068133 0 0 1 3.02669,-4.6607 10.842081,10.842081 0 0 0 -3.65559,-0.63562 z" />
      <ellipse
         style="fill:#ffffff;stroke:none;stroke-width:0.0629231"
         id="path1069-7-7-2"
         cx="-144.25554"
         cy="174.19507"
         rx="20.318384"
         ry="20.499874"
         transform="scale(-1,1)" />
      <path
         id="path4553-3-9-9"
         style="fill:#2e3436;fill-opacity:1;stroke:none;stroke-width:0.0618003"
         d="m 143.81743,163.5661 a 10.842081,10.842081 0 0 0 -10.84172,10.84223 10.842081,10.842081 0 0 0 10.84172,10.84223 10.842081,10.842081 0 0 0 10.84223,-10.84223 10.842081,10.842081 0 0 0 -0.51728,-3.30781 5.1068133,5.1068133 0 0 1 -4.58938,2.86856 5.1068133,5.1068133 0 0 1 -5.10667,-5.10667 5.1068133,5.1068133 0 0 1 3.02669,-4.66069 10.842081,10.842081 0 0 0 -3.65559,-0.63562 z" />
      <path
         style="fill:#4e9a06;fill-opacity:1;stroke:none;stroke-width:0.0649999"
         d="m 101.55405,198.19417 c -10.64352,-2.93346 -15.26947,-8.1989 -15.26947,-8.1989 -13.31465,14.08799 1.42402,31.39599 5.24889,36.56915 12.44437,-13.49782 10.02058,-28.37025 10.02058,-28.37025 z"
         id="path4851-20-3"
         sodipodi:nodetypes="cccc" />
      <path
         style="fill:#4e9a06;fill-opacity:1;stroke:none;stroke-width:0.0649999"
         d="m 147.17147,198.19417 c 10.64353,-2.93346 15.26947,-8.1989 15.26947,-8.1989 13.31465,14.08799 -1.42402,31.39599 -5.24889,36.56915 -12.44436,-13.49782 -10.02058,-28.37025 -10.02058,-28.37025 z"
         id="path4851-2-2-1"
         sodipodi:nodetypes="cccc" />
      <path
         style="fill:#4e9a06;fill-opacity:1;stroke:none;stroke-width:0.0649999"
         d="m 109.70034,202.55733 c 0.15656,0.037 6.80686,1.32454 6.80686,1.32454 l -4.51119,6.86073 z"
         id="path37988-3-9" />
      <path
         style="fill:#4e9a06;fill-opacity:1;stroke:none;stroke-width:0.0649999"
         d="m 121.64197,203.17794 6.54686,0.34908 -3.89442,6.71508 z"
         id="path42291-7-4" />
      <path
         style="fill:#4e9a06;fill-opacity:1;stroke:none;stroke-width:0.0649999"
         d="m 132.13768,202.98607 4.66949,6.85268 2.06545,-8.40356 z"
         id="path42293-5-7" />
      <path
         style="fill:#4e9a06;fill-opacity:1;stroke:none;stroke-width:0.0649999"
         d="m 127.0581,214.43632 2.64907,6.96748 3.55388,-6.70155 z"
         id="path42295-9-8" />
      <path
         style="fill:#4e9a06;fill-opacity:1;stroke:none;stroke-width:0.0649999"
         d="m 121.70173,214.45914 -3.76207,6.61102 -2.78,-7.0663 z"
         id="path42297-2-4" />
      <path
         style="fill:#f57900;fill-opacity:1;stroke:none;stroke-width:0.0649999"
         d="m 110.18627,228.26954 c -1.91272,-0.065 -2.37383,1.19615 -2.33096,3.40043 0.0429,2.20428 0.86729,3.93085 2.3589,3.90025 1.4916,-0.0306 2.11756,-3.8494 2.11756,-3.8494 0,0 0.01,4.24967 2.01972,4.31186 1.67517,0.0518 2.02536,-3.27203 2.02536,-3.27203 0,0 0.44502,3.65346 2.08218,3.7768 1.53367,0.11554 2.03713,-2.04057 2.04143,-4.03161 0.005,-2.11266 -0.52134,-3.01139 -1.70131,-3.12193 -1.4968,-0.14022 -2.15552,1.46326 -2.15552,1.46326 0,0 -0.14136,-2.13069 -2.06616,-2.27358 -1.79563,-0.1333 -2.13759,1.70481 -2.13759,1.70481 0,0 -0.34088,-1.94388 -2.25361,-2.00886 z"
         id="path42492-2-5"
         sodipodi:nodetypes="zzzcscssscscz" />
      <path
         style="fill:#f57900;fill-opacity:1;stroke:none;stroke-width:0.0649999"
         d="m 138.24594,228.23028 c 1.91273,-0.065 2.37383,1.19615 2.33097,3.40043 -0.0429,2.20428 -0.8673,3.93085 -2.3589,3.90025 -1.49161,-0.0306 -2.11756,-3.8494 -2.11756,-3.8494 0,0 -0.01,4.24967 -2.01973,4.31186 -1.67517,0.0518 -2.02536,-3.27203 -2.02536,-3.27203 0,0 -0.44501,3.65346 -2.08218,3.7768 -1.53366,0.11554 -2.03712,-2.04057 -2.04143,-4.03161 -0.005,-2.11266 0.52135,-3.01139 1.70132,-3.12193 1.49679,-0.14022 2.15551,1.46326 2.15551,1.46326 0,0 0.14136,-2.13069 2.06617,-2.27358 1.79563,-0.1333 2.13759,1.70481 2.13759,1.70481 0,0 0.34088,-1.94388 2.2536,-2.00886 z"
         id="path42492-3-8-0"
         sodipodi:nodetypes="zzzcscssscscz" />
    </g>
  </g>
</svg>
